<svg width="600" height="600" xmlns="http://www.w3.org/2000/svg">
 <g>
  <title>Layer 1</title>
  <path id="svg_3" d="m178.33333,163.86667c0,0 -133,282 -133,282c0,0 71,0 71,-0.2c0,0.2 93,-209.8 93,-210c0,0.2 28,208.2 28,208c0,0.2 72,0.2 72,0c0,0.2 -48,-279.8 -48,-280c0,0.2 -83,0.2 -83,0.2z" stroke="#000" fill="#000000"/>
  <path id="svg_6" d="m123.33333,356.53333l17,-2.2l15,-14l93,0l7,54l-19,2l-118,-2l5,-37.8z" stroke="#000" fill="#000000"/>
  <path id="svg_7" d="m362.6144,353.90269c0,0 -37,52 -37,52c0,0 51,42 118,39c67,-3 94,-52 96,-86c2,-34 -4.97298,-42.24327 -17,-57c-12.02702,-14.75673 -94.97583,-53.38952 -100.13793,-68.55174c-5.16211,-15.16222 2.57045,-24.55634 33.13793,-24.44826c30.56749,0.10807 57,21 56,23c-1,2 42,-50 42,-50.2c0,0.2 -37,-33.8 -97,-34.8c-60,-1 -91,35 -101,71c-5,18 -5.37341,63.37457 29.30802,83.51089c34.68144,20.13632 86.8285,31.97324 84.90665,59.10357c-1.92186,27.13034 -38.51613,31.19218 -77.86943,12.07156" stroke="#000" fill="#000000"/>
 </g>

</svg>